<svg xmlns="http://www.w3.org/2000/svg" xmlns:xlink="http://www.w3.org/1999/xlink" version="1.1" x="0px" y="0px" viewBox="0 0 24 30" style="enable-background:new 0 0 24 24;" xml:space="preserve"><path d="M21.899,18.221c1.138-1.805,1.808-3.934,1.808-6.221c0-6.455-5.252-11.707-11.707-11.707  c-3.281,0-6.432,1.39-8.646,3.814C3.091,4.395,2.847,4.696,2.616,5.005C2.614,5.007,2.612,5.008,2.61,5.011S2.608,5.016,2.606,5.019  C1.11,7.03,0.293,9.467,0.293,12c0,6.455,5.251,11.707,11.707,11.707c4.127,0,7.755-2.152,9.84-5.388  c0.008-0.01,0.021-0.014,0.028-0.025C21.884,18.271,21.889,18.245,21.899,18.221z M12,1.093c6.014,0,10.906,4.893,10.906,10.907  c0,2.003-0.552,3.875-1.498,5.49l-2.994-2.065v-5.198c0-1.873-1.249-3.442-2.952-3.967V5.057c0.287-0.207,0.486-0.528,0.486-0.909  c0-0.629-0.512-1.141-1.141-1.141H9.193c-0.629,0-1.141,0.512-1.141,1.141c0,0.38,0.199,0.701,0.486,0.909V6.26  C7.843,6.474,7.223,6.854,6.735,7.37L3.523,5.155c0.138-0.171,0.273-0.344,0.422-0.507C6.007,2.389,8.943,1.093,12,1.093z   M6.386,10.227c0-0.651,0.194-1.255,0.515-1.77l10.712,7.388v3.969c0,0.209-0.17,0.379-0.379,0.379H6.766  c-0.209,0-0.379-0.17-0.379-0.379V10.227z M7.397,7.827c0.608-0.598,1.44-0.969,2.359-0.969h4.488c1.858,0,3.369,1.512,3.369,3.37  v4.646L7.397,7.827z M14.808,3.807c0.188,0,0.34,0.153,0.34,0.341s-0.152,0.341-0.34,0.341H10.44V3.807H14.808z M9.64,4.489H9.193  c-0.188,0-0.341-0.153-0.341-0.341s0.153-0.341,0.341-0.341H9.64V4.489z M9.338,6.058V5.289h5.323v0.769h-0.417H9.756H9.338z   M12,22.906C5.986,22.906,1.093,18.014,1.093,12c0-2.237,0.691-4.39,1.95-6.205l3.199,2.207c-0.41,0.645-0.656,1.405-0.656,2.225  v9.586c0,0.65,0.529,1.18,1.179,1.18h10.469c0.65,0,1.18-0.529,1.18-1.18v-3.416l2.57,1.773C19.016,21.027,15.724,22.906,12,22.906z  "/><text x="0" y="39" fill="#000000" font-size="5px" font-weight="bold" font-family="'Helvetica Neue', Helvetica, Arial-Unicode, Arial, Sans-serif">Created by myiconfinder</text><text x="0" y="44" fill="#000000" font-size="5px" font-weight="bold" font-family="'Helvetica Neue', Helvetica, Arial-Unicode, Arial, Sans-serif">from the Noun Project</text></svg>