<svg xmlns="http://www.w3.org/2000/svg" xmlns:xlink="http://www.w3.org/1999/xlink" version="1.1" x="0px" y="0px" viewBox="0 0 24 30" style="enable-background:new 0 0 24 24;" xml:space="preserve"><path d="M15.912,6.321c-0.319-0.41-0.716-0.754-1.172-1.025c0.286-0.172,0.531-0.404,0.706-0.699  c0.278-0.468,0.357-1.017,0.223-1.544c-0.206-0.806-0.96-1.426-1.849-1.525c-0.168-0.401-0.452-0.74-0.833-0.966  c-0.468-0.278-1.015-0.357-1.544-0.223c-0.632,0.161-1.124,0.619-1.367,1.212c-0.091,0.011-0.183,0.007-0.272,0.03  c-0.528,0.135-0.972,0.467-1.25,0.935C8.275,2.984,8.197,3.533,8.331,4.06c0.135,0.528,0.473,0.967,0.908,1.25  C8.792,5.58,8.402,5.918,8.088,6.321c-0.67,0.86-0.908,1.931-0.654,2.938l3.561,14.092c0.08,0.317,0.387,0.374,1.005,0.374  s0.925-0.057,1.005-0.373l3.562-14.093C16.821,8.252,16.582,7.182,15.912,6.321z M9.106,3.863C9.024,3.542,9.073,3.208,9.241,2.924  C9.41,2.639,9.68,2.438,10,2.356c0.112-0.029,0.228-0.042,0.343-0.038c0.001,0,0.002-0.001,0.004-0.001  c0.003,0,0.006,0.001,0.009,0.001c0.006,0,0.01-0.005,0.016-0.005c0.075-0.004,0.142-0.029,0.201-0.069  c0.012-0.008,0.024-0.013,0.035-0.022c0.058-0.048,0.098-0.112,0.122-0.186c0.003-0.008,0.011-0.012,0.013-0.021  c0.11-0.443,0.454-0.789,0.896-0.901c0.663-0.169,1.338,0.232,1.507,0.894c0.002,0.006,0.006,0.011,0.008,0.017  c0.036,0.142,0.136,0.247,0.295,0.272c0.017,0.004,0.034,0.005,0.052,0.007c0.016,0,0.028,0.007,0.044,0.006  c0.605-0.01,1.21,0.404,1.347,0.941c0.082,0.321,0.034,0.654-0.135,0.939s-0.438,0.486-0.758,0.568L13.853,4.8  c-0.042,0.013-0.099,0.029-0.141,0.038C13.3,4.708,12.858,4.632,12.4,4.602V3.048c0-0.221-0.179-0.4-0.4-0.4s-0.4,0.179-0.4,0.4  v1.554c-0.459,0.03-0.901,0.106-1.314,0.236C9.749,4.818,9.245,4.409,9.106,3.863z M15.791,9.063l-1.014,4.014h-1.992  c-0.221,0-0.4,0.18-0.4,0.4s0.179,0.4,0.4,0.4h1.79l-2.284,9.038c-0.151,0.01-0.429,0.01-0.58,0l-1.285-5.087h1.411  c0.221,0,0.4-0.18,0.4-0.4s-0.179-0.4-0.4-0.4h-1.613l-1.647-6.517h1.779c0.221,0,0.4-0.179,0.4-0.4s-0.179-0.4-0.4-0.4H8.373  L8.209,9.063c-0.196-0.777-0.015-1.576,0.51-2.25c0.708-0.909,1.904-1.43,3.281-1.43s2.573,0.521,3.281,1.431  C15.807,7.487,15.987,8.286,15.791,9.063z"/><text x="0" y="39" fill="#000000" font-size="5px" font-weight="bold" font-family="'Helvetica Neue', Helvetica, Arial-Unicode, Arial, Sans-serif">Created by myiconfinder</text><text x="0" y="44" fill="#000000" font-size="5px" font-weight="bold" font-family="'Helvetica Neue', Helvetica, Arial-Unicode, Arial, Sans-serif">from the Noun Project</text></svg>